<mxfile host="Electron" agent="Mozilla/5.0 (Macintosh; Intel Mac OS X 10_15_7) AppleWebKit/537.36 (KHTML, like Gecko) draw.io/28.1.2 Chrome/138.0.7204.243 Electron/37.4.0 Safari/537.36" version="28.1.2">
  <diagram name="Page-1" id="o9H3_WEbwlAlOLqSspBq">
    <mxGraphModel dx="946" dy="673" grid="1" gridSize="10" guides="1" tooltips="1" connect="1" arrows="1" fold="1" page="1" pageScale="1" pageWidth="850" pageHeight="1100" math="0" shadow="0">
      <root>
        <mxCell id="0" />
        <mxCell id="1" parent="0" />
        <mxCell id="IDraYD9RaNL_X3rxK7uP-1" value="" style="rounded=0;whiteSpace=wrap;html=1;fillColor=#fff2cc;strokeColor=#d6b656;shadow=0;sketch=1;curveFitting=1;jiggle=2;" vertex="1" parent="1">
          <mxGeometry x="40" y="280" width="220" height="360" as="geometry" />
        </mxCell>
        <mxCell id="IDraYD9RaNL_X3rxK7uP-2" value="&lt;font style=&quot;font-size: 18px;&quot;&gt;组件1&lt;/font&gt;" style="rounded=0;whiteSpace=wrap;html=1;fillColor=#d5e8d4;strokeColor=#82b366;shadow=0;sketch=1;curveFitting=1;jiggle=2;" vertex="1" parent="1">
          <mxGeometry x="60" y="280" width="60" height="60" as="geometry" />
        </mxCell>
        <mxCell id="IDraYD9RaNL_X3rxK7uP-3" value="orientation=horizontal&lt;div&gt;gravity=center_horizontal | top&lt;/div&gt;" style="text;html=1;align=center;verticalAlign=middle;whiteSpace=wrap;rounded=0;fontSize=20;fillColor=#ffe6cc;strokeColor=#d79b00;sketch=1;curveFitting=1;jiggle=2;" vertex="1" parent="1">
          <mxGeometry x="40" y="70" width="220" height="80" as="geometry" />
        </mxCell>
        <mxCell id="IDraYD9RaNL_X3rxK7uP-4" value="&lt;font style=&quot;font-size: 16px;&quot;&gt;方向=水平&lt;/font&gt;&lt;div&gt;&lt;font style=&quot;font-size: 16px;&quot;&gt;垂直排列 = 上对齐&lt;/font&gt;&lt;div&gt;&lt;font style=&quot;font-size: 16px;&quot;&gt;水平排列 = 右对齐&lt;/font&gt;&lt;/div&gt;&lt;/div&gt;" style="text;html=1;align=center;verticalAlign=middle;whiteSpace=wrap;rounded=0;fillColor=#dae8fc;strokeColor=#6c8ebf;fontColor=#333333;sketch=1;curveFitting=1;jiggle=2;" vertex="1" parent="1">
          <mxGeometry x="40" y="170" width="220" height="90" as="geometry" />
        </mxCell>
        <mxCell id="IDraYD9RaNL_X3rxK7uP-5" value="&lt;font style=&quot;font-size: 18px;&quot;&gt;组件2&lt;/font&gt;" style="rounded=0;whiteSpace=wrap;html=1;fillColor=#d5e8d4;strokeColor=#82b366;shadow=0;sketch=1;curveFitting=1;jiggle=2;" vertex="1" parent="1">
          <mxGeometry x="120" y="280" width="60" height="60" as="geometry" />
        </mxCell>
        <mxCell id="IDraYD9RaNL_X3rxK7uP-6" value="&lt;font style=&quot;font-size: 18px;&quot;&gt;组件3&lt;/font&gt;" style="rounded=0;whiteSpace=wrap;html=1;fillColor=#d5e8d4;strokeColor=#82b366;shadow=0;sketch=1;curveFitting=1;jiggle=2;" vertex="1" parent="1">
          <mxGeometry x="180" y="280" width="60" height="60" as="geometry" />
        </mxCell>
        <mxCell id="IDraYD9RaNL_X3rxK7uP-7" value="" style="rounded=0;whiteSpace=wrap;html=1;fillColor=#fff2cc;strokeColor=#d6b656;shadow=0;sketch=1;curveFitting=1;jiggle=2;" vertex="1" parent="1">
          <mxGeometry x="300" y="280" width="220" height="360" as="geometry" />
        </mxCell>
        <mxCell id="IDraYD9RaNL_X3rxK7uP-8" value="&lt;font style=&quot;font-size: 18px;&quot;&gt;组件1&lt;/font&gt;" style="rounded=0;whiteSpace=wrap;html=1;fillColor=#d5e8d4;strokeColor=#82b366;shadow=0;sketch=1;curveFitting=1;jiggle=2;" vertex="1" parent="1">
          <mxGeometry x="320" y="430" width="60" height="60" as="geometry" />
        </mxCell>
        <mxCell id="IDraYD9RaNL_X3rxK7uP-10" value="&lt;font style=&quot;font-size: 16px;&quot;&gt;方向=水平&lt;/font&gt;&lt;div&gt;&lt;font style=&quot;font-size: 16px;&quot;&gt;垂直排列 = 垂直居中&lt;/font&gt;&lt;div&gt;&lt;font style=&quot;font-size: 16px;&quot;&gt;水平排列 = 右对齐&lt;/font&gt;&lt;/div&gt;&lt;/div&gt;" style="text;html=1;align=center;verticalAlign=middle;whiteSpace=wrap;rounded=0;fillColor=#dae8fc;strokeColor=#6c8ebf;fontColor=#333333;sketch=1;curveFitting=1;jiggle=2;" vertex="1" parent="1">
          <mxGeometry x="300" y="170" width="220" height="90" as="geometry" />
        </mxCell>
        <mxCell id="IDraYD9RaNL_X3rxK7uP-11" value="&lt;font style=&quot;font-size: 18px;&quot;&gt;组件2&lt;/font&gt;" style="rounded=0;whiteSpace=wrap;html=1;fillColor=#d5e8d4;strokeColor=#82b366;shadow=0;sketch=1;curveFitting=1;jiggle=2;" vertex="1" parent="1">
          <mxGeometry x="380" y="430" width="60" height="60" as="geometry" />
        </mxCell>
        <mxCell id="IDraYD9RaNL_X3rxK7uP-12" value="&lt;font style=&quot;font-size: 18px;&quot;&gt;组件3&lt;/font&gt;" style="rounded=0;whiteSpace=wrap;html=1;fillColor=#d5e8d4;strokeColor=#82b366;shadow=0;sketch=1;curveFitting=1;jiggle=2;" vertex="1" parent="1">
          <mxGeometry x="440" y="430" width="60" height="60" as="geometry" />
        </mxCell>
        <mxCell id="IDraYD9RaNL_X3rxK7uP-13" value="" style="rounded=0;whiteSpace=wrap;html=1;fillColor=#fff2cc;strokeColor=#d6b656;shadow=0;sketch=1;curveFitting=1;jiggle=2;" vertex="1" parent="1">
          <mxGeometry x="560" y="280" width="220" height="360" as="geometry" />
        </mxCell>
        <mxCell id="IDraYD9RaNL_X3rxK7uP-14" value="&lt;font style=&quot;font-size: 18px;&quot;&gt;组件1&lt;/font&gt;" style="rounded=0;whiteSpace=wrap;html=1;fillColor=#d5e8d4;strokeColor=#82b366;shadow=0;sketch=1;curveFitting=1;jiggle=2;" vertex="1" parent="1">
          <mxGeometry x="580" y="580" width="60" height="60" as="geometry" />
        </mxCell>
        <mxCell id="IDraYD9RaNL_X3rxK7uP-16" value="&lt;font style=&quot;font-size: 16px;&quot;&gt;方向=水平&lt;/font&gt;&lt;div&gt;&lt;font style=&quot;font-size: 16px;&quot;&gt;垂直排列 = 下对齐&lt;/font&gt;&lt;div&gt;&lt;font style=&quot;font-size: 16px;&quot;&gt;水平排列 = 右对齐&lt;/font&gt;&lt;/div&gt;&lt;/div&gt;" style="text;html=1;align=center;verticalAlign=middle;whiteSpace=wrap;rounded=0;fillColor=#dae8fc;strokeColor=#6c8ebf;fontColor=#333333;sketch=1;curveFitting=1;jiggle=2;" vertex="1" parent="1">
          <mxGeometry x="560" y="170" width="220" height="90" as="geometry" />
        </mxCell>
        <mxCell id="IDraYD9RaNL_X3rxK7uP-17" value="&lt;font style=&quot;font-size: 18px;&quot;&gt;组件2&lt;/font&gt;" style="rounded=0;whiteSpace=wrap;html=1;fillColor=#d5e8d4;strokeColor=#82b366;shadow=0;sketch=1;curveFitting=1;jiggle=2;" vertex="1" parent="1">
          <mxGeometry x="640" y="580" width="60" height="60" as="geometry" />
        </mxCell>
        <mxCell id="IDraYD9RaNL_X3rxK7uP-18" value="&lt;font style=&quot;font-size: 18px;&quot;&gt;组件3&lt;/font&gt;" style="rounded=0;whiteSpace=wrap;html=1;fillColor=#d5e8d4;strokeColor=#82b366;shadow=0;sketch=1;curveFitting=1;jiggle=2;" vertex="1" parent="1">
          <mxGeometry x="700" y="580" width="60" height="60" as="geometry" />
        </mxCell>
        <mxCell id="IDraYD9RaNL_X3rxK7uP-19" value="orientation=horizontal&lt;div&gt;gravity=center_horizontal | center_vertical&lt;/div&gt;" style="text;html=1;align=center;verticalAlign=middle;whiteSpace=wrap;rounded=0;fontSize=20;fillColor=#ffe6cc;strokeColor=#d79b00;sketch=1;curveFitting=1;jiggle=2;" vertex="1" parent="1">
          <mxGeometry x="300" y="70" width="220" height="80" as="geometry" />
        </mxCell>
        <mxCell id="IDraYD9RaNL_X3rxK7uP-20" value="orientation=horizontal&lt;div&gt;gravity=center_horizontal | bottom&lt;/div&gt;" style="text;html=1;align=center;verticalAlign=middle;whiteSpace=wrap;rounded=0;fontSize=20;fillColor=#ffe6cc;strokeColor=#d79b00;sketch=1;curveFitting=1;jiggle=2;" vertex="1" parent="1">
          <mxGeometry x="560" y="70" width="220" height="80" as="geometry" />
        </mxCell>
      </root>
    </mxGraphModel>
  </diagram>
</mxfile>
